<svg xmlns="http://www.w3.org/2000/svg" viewBox="0 0 100 100">
  <defs>
    <linearGradient id="logoGradient" x1="0%" y1="0%" x2="100%" y2="100%">
      <stop offset="0%" stop-color="#86efac" />
      <stop offset="100%" stop-color="#4ade80" />
    </linearGradient>
    <filter id="glow">
      <feGaussianBlur stdDeviation="1.5" result="coloredBlur"/>
      <feMerge>
        <feMergeNode in="coloredBlur"/>
        <feMergeNode in="SourceGraphic"/>
      </feMerge>
    </filter>
  </defs>
  
  <!-- Background -->
  <rect width="100" height="100" fill="#0f2e1f" rx="12"/>
  
  <!-- Car outline with neural network fusion -->
  <g filter="url(#glow)">
    <!-- Car body outline -->
    <path
      d="M 20 60 L 25 50 L 35 40 L 50 40 L 65 40 L 75 50 L 80 60 L 80 70 L 20 70 Z"
      stroke="url(#logoGradient)"
      stroke-width="2.5"
      stroke-linecap="round"
      stroke-linejoin="round"
      fill="none"
    />
    
    <!-- Car windows -->
    <path
      d="M 35 45 L 40 40 L 48 40 L 48 50 L 35 50 Z"
      stroke="url(#logoGradient)"
      stroke-width="2"
      stroke-linecap="round"
      stroke-linejoin="round"
      fill="none"
    />
    <path
      d="M 52 40 L 60 40 L 65 45 L 65 50 L 52 50 Z"
      stroke="url(#logoGradient)"
      stroke-width="2"
      stroke-linecap="round"
      stroke-linejoin="round"
      fill="none"
    />
    
    <!-- Wheels -->
    <circle 
      cx="32" 
      cy="70" 
      r="6" 
      stroke="url(#logoGradient)" 
      stroke-width="2.5" 
      fill="none"
    />
    <circle 
      cx="68" 
      cy="70" 
      r="6" 
      stroke="url(#logoGradient)" 
      stroke-width="2.5" 
      fill="none"
    />
    
    <!-- Neural network nodes on car -->
    <circle cx="30" cy="45" r="2" fill="#86efac" />
    <circle cx="50" cy="35" r="2.5" fill="#86efac" />
    <circle cx="70" cy="45" r="2" fill="#86efac" />
    <circle cx="50" cy="55" r="2" fill="#86efac" />
    
    <!-- Neural network connections -->
    <line x1="30" y1="45" x2="50" y2="35" stroke="#4ade80" stroke-width="1" opacity="0.6" />
    <line x1="50" y1="35" x2="70" y2="45" stroke="#4ade80" stroke-width="1" opacity="0.6" />
    <line x1="30" y1="45" x2="50" y2="55" stroke="#4ade80" stroke-width="1" opacity="0.6" />
    <line x1="70" y1="45" x2="50" y2="55" stroke="#4ade80" stroke-width="1" opacity="0.6" />
    
    <!-- Brain circuit pattern above car -->
    <path
      d="M 40 25 L 45 30 M 45 30 L 50 25 M 50 25 L 55 30 M 55 30 L 60 25"
      stroke="#4ade80"
      stroke-width="1.5"
      stroke-linecap="round"
      fill="none"
      opacity="0.7"
    />
    <circle cx="45" cy="30" r="1.5" fill="#86efac" />
    <circle cx="55" cy="30" r="1.5" fill="#86efac" />
  </g>
</svg>
